# xmcd CD database file
# Copyright (C) 1997 Ti Kan
#
# Track frame offsets:
#  150
#  22760
#  33860
#  48035
#  69430
#  84260
#  102662
#  118867
#  138627
#  153852
#  167642
#  181402
#
# Disc length: 2592 seconds
#
# Revision: 1
# Processed by: cddbd v1.4b41PL1 Copyright (c) Steve Scherf et al.
# Submitted via: CDWizzard Release:4.22
#
DISCID=8f0a1e0c
DTITLE=Tabu Ley Rochereau - et l'orchestre afrisa international - Africa 
DTITLE=Worldwid - 35th Anniversity Album
DYEAR=1900
DGENRE=
TTITLE0=Nairobi
TTITLE1=Sala Noki Pascal
TTITLE2=Cafe Rica
TTITLE3=Lisanga Ya Bambanda
TTITLE4=Likala Ya Moto
TTITLE5=Africa Mokili Mobimba
TTITLE6=Kimakango To Libala
TTITLE7=Christina
TTITLE8=Marie Clara
TTITLE9=Mokitani Ya Wendo
TTITLE10=Ruffine
TTITLE11=Ah! Congo
EXTD=
EXTT0=
EXTT1=
EXTT2=
EXTT3=
EXTT4=
EXTT5=
EXTT6=
EXTT7=
EXTT8=
EXTT9=
EXTT10=
EXTT11=
PLAYORDER=
